# Blender 4.5.9 LTS
# www.blender.org
o GEO_V_CornerFlag
v 0.015540 0.000000 0.000000
v 0.007770 -0.000000 -0.013458
v -0.007770 -0.000000 -0.013458
v -0.015540 0.000000 0.000000
v -0.007770 0.000000 0.013458
v 0.007770 0.000000 0.013458
v 0.013144 0.763994 -0.000000
v 0.102510 0.467196 -0.019265
v 0.050848 0.464037 -0.011161
v 0.044161 0.346722 -0.030880
v 0.042016 0.469640 0.001258
v 0.038301 0.447636 -0.017148
v -0.005970 0.412341 -0.025364
v -0.003415 0.373342 -0.048314
v 0.039439 0.576267 -0.003179
v 0.034591 0.546040 -0.031374
v -0.006806 0.544778 -0.028277
v 0.034007 0.577561 0.002714
v 0.029496 0.569616 -0.008771
v 0.000720 0.553697 -0.021300
v 0.002362 0.533362 -0.034234
v 0.041362 0.420981 -0.037732
v 0.013144 0.477175 -0.000000
v -0.018257 0.395755 -0.038054
v 0.013144 0.577561 -0.000000
v 0.076103 0.566212 -0.019070
v 0.037553 0.576037 -0.002777
v 0.034872 0.546257 -0.033796
v -0.009173 0.545016 -0.028563
v 0.033271 0.577487 0.000918
v 0.028742 0.569477 -0.006718
v -0.000308 0.553643 -0.019385
v 0.001454 0.533576 -0.036450
v 0.041866 0.420970 -0.040120
v 0.015540 0.782082 -0.000000
v 0.011299 0.786163 0.002449
v 0.014972 0.784122 0.000328
v 0.013420 0.785616 0.001224
v 0.004961 0.786163 -0.008592
v 0.007770 0.782082 -0.013458
v 0.006365 0.785616 -0.011025
v 0.007394 0.784122 -0.012806
v -0.007770 0.786163 -0.008561
v -0.007770 0.782082 -0.013458
v -0.007770 0.785616 -0.011010
v -0.007770 0.784122 -0.012802
v -0.011734 0.786163 -0.001570
v -0.015540 0.782082 -0.000000
v -0.013637 0.785616 -0.000785
v -0.015030 0.784122 -0.000210
v -0.005414 0.786163 0.009377
v -0.007770 0.782082 0.013458
v -0.006592 0.785616 0.011418
v -0.007454 0.784122 0.012911
v 0.007226 0.786163 0.009377
v 0.007770 0.782082 0.013458
v 0.007498 0.785616 0.011418
v 0.007697 0.784122 0.012911
vn -0.0571 -0.0151 0.9983
vn 0.5506 0.0229 0.8345
vn 0.3528 0.0404 0.9348
vn -0.2659 -0.0365 0.9633
vn -0.2283 -0.1195 0.9662
vn -0.1440 -0.1109 0.9833
vn 0.3029 -0.1279 0.9444
vn 0.9770 0.1258 -0.1723
vn 0.2051 -0.1113 0.9724
vn 0.5111 0.0510 -0.8580
vn 0.9781 -0.1254 0.1662
vn -0.1290 -0.0000 0.9916
vn 0.3978 0.0878 -0.9133
vn -0.0738 -0.0044 0.9973
vn -0.2582 0.0034 0.9661
vn 0.6006 -0.0025 -0.7996
vn 0.7055 -0.1002 0.7016
vn 0.7254 0.1104 -0.6794
vn -0.9808 -0.1141 0.1579
vn -0.7038 -0.1413 0.6962
vn -0.3408 -0.0304 -0.9396
vn 0.2283 0.0447 -0.9726
vn -0.3167 0.0753 0.9455
vn 0.0454 0.0002 -0.9990
vn -0.5590 -0.0481 -0.8278
vn 0.2627 -0.0168 -0.9647
vn 0.1659 0.1140 -0.9795
vn 0.2737 0.1269 -0.9534
vn -0.3040 0.1670 -0.9379
vn -0.2477 0.1088 -0.9627
vn -0.9826 0.1115 -0.1485
vn -0.5614 -0.0253 0.8272
vn -0.3505 -0.0733 0.9337
vn 0.0495 -0.0178 -0.9986
vn -0.5963 -0.0221 0.8025
vn -0.7230 0.0821 -0.6859
vn -0.1620 -0.0973 0.9820
vn 0.3234 -0.1070 -0.9402
vn 0.2982 0.0391 -0.9537
vn 0.0435 -0.0000 -0.9991
vn 0.1961 0.9789 0.0581
vn 0.1392 0.9783 0.1533
vn 0.3424 0.8041 0.4860
vn 0.5661 0.8206 0.0785
vn 0.4461 0.4483 0.7747
vn 0.8747 0.4846 0.0036
vn 0.4848 0.1184 0.8666
vn 0.9909 0.1331 -0.0202
vn -0.2023 0.9783 -0.0439
vn -0.1484 0.9789 -0.1408
vn -0.3510 0.8206 -0.4510
vn -0.5921 0.8041 -0.0535
vn -0.4405 0.4846 -0.7557
vn -0.8939 0.4482 0.0010
vn -0.4779 0.1331 -0.8683
vn -0.9929 0.1184 0.0134
vn -0.0754 0.9886 0.1306
vn -0.2561 0.8589 0.4435
vn -0.4301 0.5098 0.7450
vn -0.4949 0.1429 0.8571
vn 0.0636 0.9919 -0.1101
vn 0.2272 0.8908 -0.3935
vn 0.4131 0.5633 -0.7155
vn 0.4930 0.1673 -0.8538
vn 0.5000 -0.0000 0.8660
vn 1.0000 -0.0000 -0.0000
vn 0.5000 -0.0000 -0.8660
vn -0.5000 -0.0000 -0.8660
vn -1.0000 -0.0000 -0.0000
vn -0.5000 -0.0000 0.8660
vt 0.642759 0.028900
vt 0.642185 0.026735
vt 0.650239 0.027344
vt 0.646848 0.012457
vt 0.652778 0.017367
vt 0.649996 0.019600
vt 0.664241 0.027991
vt 0.650136 0.026761
vt 0.648117 0.021397
vt 0.649128 0.023342
vt 0.648633 0.022444
vt 0.650292 0.028907
vt 0.649808 0.025852
vt 0.636994 0.016913
vt 0.641680 0.015310
vt 0.638973 0.020396
vt 0.638066 0.018797
vt 0.641776 0.025572
vt 0.640784 0.024283
vt 0.636798 0.012620
vt 0.748774 0.011726
vt 0.749224 0.012491
vt 0.749194 0.012716
vt 0.748540 0.011591
vt 0.749158 0.012923
vt 0.748318 0.011477
vt 0.743759 0.130194
vt 0.742094 0.130194
vt 0.742074 0.129571
vt 0.743790 0.129571
vt 0.751317 0.011282
vt 0.750879 0.010510
vt 0.750879 0.010240
vt 0.751527 0.011369
vt 0.750892 0.009991
vt 0.751724 0.011442
vt 0.738623 0.130194
vt 0.736990 0.130194
vt 0.736927 0.129571
vt 0.738643 0.129571
vt 0.750619 0.012491
vt 0.750749 0.012716
vt 0.750871 0.012926
vt 0.740358 0.130194
vt 0.740358 0.129571
vt 0.749474 0.010507
vt 0.749318 0.010238
vt 0.749174 0.009988
vt 0.745505 0.130194
vt 0.745505 0.129571
vt 0.747221 0.129571
vt 0.747221 0.130194
vt 0.742074 0.010093
vt 0.743790 0.010093
vt 0.745505 0.010093
vt 0.747221 0.010093
vt 0.736927 0.010093
vt 0.738643 0.010093
vt 0.740358 0.010093
s 1
f 23/1/1 11/2/2 18/3/3
f 8/4/4 26/5/5 16/6/6
f 7/7/7 16/6/6 26/5/5
f 7/7/7 18/3/3 15/8/8
f 7/7/7 21/9/9 16/6/6
f 7/7/7 20/10/10 17/11/11
f 7/7/7 25/12/12 18/3/3
f 7/7/7 15/8/8 19/13/13
f 7/7/7 19/13/13 20/10/10
f 7/7/7 17/11/11 21/9/9
f 15/8/8 18/3/3 11/2/2
f 14/14/14 22/15/15 16/6/6
f 16/6/6 21/9/9 14/14/14
f 13/16/16 24/17/17 17/11/11
f 17/11/11 20/10/10 13/16/16
f 15/8/8 9/18/18 19/13/13
f 27/8/19 9/18/20 30/3/21
f 19/13/13 12/19/22 20/10/10
f 9/18/18 12/19/22 19/13/13
f 14/14/14 21/9/9 17/11/11
f 17/11/11 24/17/17 14/14/14
f 14/14/14 10/20/23 22/15/15
f 22/15/15 10/20/23 8/4/4
f 25/12/24 30/3/21 11/2/25
f 34/15/26 28/6/27 26/5/28
f 7/7/29 26/5/28 28/6/27
f 7/7/29 27/8/19 30/3/21
f 7/7/29 28/6/27 33/9/30
f 7/7/29 29/11/31 32/10/32
f 7/7/29 30/3/21 25/12/24
f 7/7/29 31/13/33 27/8/19
f 7/7/29 32/10/32 31/13/33
f 7/7/29 33/9/30 29/11/31
f 9/18/20 11/2/25 30/3/21
f 14/14/34 28/6/27 34/15/26
f 28/6/27 14/14/34 33/9/30
f 13/16/35 29/11/31 24/17/36
f 29/11/31 13/16/35 32/10/32
f 12/19/37 27/8/19 31/13/33
f 27/8/19 12/19/37 9/18/20
f 13/16/35 31/13/33 32/10/32
f 31/13/33 13/16/35 12/19/37
f 14/14/34 24/17/36 33/9/30
f 14/14/34 34/15/26 10/20/38
f 34/15/26 8/4/39 10/20/38
f 25/12/12 23/1/1 18/3/3
f 12/19/22 13/16/16 20/10/10
f 9/18/18 15/8/8 11/2/2
f 23/1/40 25/12/24 11/2/25
f 22/15/15 8/4/4 16/6/6
f 8/4/39 34/15/26 26/5/28
f 24/17/36 29/11/31 33/9/30
f 36/21/41 55/22/42 57/23/43 38/24/44
f 38/24/44 57/23/43 58/25/45 37/26/46
f 37/27/46 58/28/45 56/29/47 35/30/48
f 47/31/49 43/32/50 45/33/51 49/34/52
f 49/34/52 45/33/51 46/35/53 50/36/54
f 50/37/54 46/38/53 44/39/55 48/40/56
f 55/22/42 51/41/57 53/42/58 57/23/43
f 57/23/43 53/42/58 54/43/59 58/25/45
f 58/28/45 54/44/59 52/45/60 56/29/47
f 39/46/61 36/21/41 38/24/44 41/47/62
f 41/47/62 38/24/44 37/26/46 42/48/63
f 42/49/63 37/27/46 35/30/48 40/50/64
f 51/41/57 47/31/49 49/34/52 53/42/58
f 53/42/58 49/34/52 50/36/54 54/43/59
f 54/44/59 50/37/54 48/40/56 52/45/60
f 40/50/64 44/51/55 46/52/53 42/49/63
f 42/48/63 46/35/53 45/33/51 41/47/62
f 41/47/62 45/33/51 43/32/50 39/46/61
f 55/22/42 36/21/41 51/41/57
f 35/30/48 56/29/47 6/53/65 1/54/66
f 40/50/64 35/30/48 1/54/66 2/55/67
f 43/32/50 51/41/57 36/21/41 39/46/61
f 44/51/55 40/50/64 2/55/67 3/56/68
f 43/32/50 47/31/49 51/41/57
f 48/40/56 44/39/55 3/57/68 4/58/69
f 52/45/60 48/40/56 4/58/69 5/59/70
f 56/29/47 52/45/60 5/59/70 6/53/65
