# Blender 4.5.9 LTS
# www.blender.org
o GEO_Robot_NET
v 4.973314 -0.934479 1.462117
v 4.524096 -0.934247 1.462196
v 4.973314 0.936619 1.462117
v 4.524096 0.936388 1.462196
v 5.489295 0.936793 0.037547
v 5.489295 -0.934652 0.037547
v 4.524096 -0.934247 0.035530
v 4.524096 0.936388 0.035530
v -4.973314 -0.934479 1.462117
v -4.524096 -0.934247 1.462196
v -4.973314 0.936619 1.462117
v -4.524096 0.936388 1.462196
v -5.489295 0.936793 0.037547
v -5.489295 -0.934652 0.037547
v -4.524096 -0.934247 0.035530
v -4.524096 0.936388 0.035530
v 4.973314 -0.934479 1.462117
v 4.524096 -0.934247 1.462196
v 4.973314 0.936619 1.462117
v 4.524096 0.936388 1.462196
v 5.489295 0.936793 0.037547
v 5.489295 -0.934652 0.037547
v 4.524096 -0.934247 0.035530
v 4.524096 0.936388 0.035530
v -4.973314 -0.934479 1.462117
v -4.524096 -0.934247 1.462196
v -4.973314 0.936619 1.462117
v -4.524096 0.936388 1.462196
v -5.489295 0.936793 0.037547
v -5.489295 -0.934652 0.037547
v -4.524096 -0.934247 0.035530
v -4.524096 0.936388 0.035530
vn -0.0002 -0.0000 -1.0000
vn -0.9402 -0.0000 -0.3406
vn 0.0004 1.0000 -0.0000
vn 0.0004 -1.0000 -0.0000
vn 0.0002 -0.0000 -1.0000
vn 0.9402 -0.0000 -0.3406
vn -0.0004 1.0000 -0.0000
vn -0.0004 -1.0000 -0.0000
vn 0.0002 -0.0000 1.0000
vn 0.9402 -0.0000 0.3406
vn -0.0002 -0.0000 1.0000
vn -0.9402 -0.0000 0.3406
vt 1.040239 0.772500
vt 1.040115 1.012849
vt 0.039255 1.012849
vt 0.039131 0.772500
vt 0.039038 -0.038155
vt 1.040332 -0.038155
vt 1.526230 0.136753
vt 1.266198 0.854417
vt -0.446859 0.136753
vt -0.186828 0.854417
vt 0.039131 0.772500
vt 1.040239 0.772500
vt 1.040115 1.012849
vt 0.039255 1.012849
vt 0.039038 -0.038155
vt -0.186828 0.854417
vt -0.446860 0.136753
vt 1.526230 0.136753
vt 1.266198 0.854417
s 1
f 1/1/1 2/2/1 4/3/1 3/4/1
f 5/5/2 6/6/2 1/1/2 3/4/2
f 6/6/3 7/7/3 2/8/3 1/1/3
f 8/9/4 5/5/4 3/4/4 4/10/4
f 9/11/5 11/12/5 12/13/5 10/14/5
f 13/6/6 11/12/6 9/11/6 14/15/6
f 14/15/7 9/11/7 10/16/7 15/17/7
f 16/18/8 12/19/8 11/12/8 13/6/8
f 17/1/9 19/4/9 20/3/9 18/2/9
f 21/5/10 19/4/10 17/1/10 22/6/10
f 22/6/8 17/1/8 18/8/8 23/7/8
f 24/9/7 20/10/7 19/4/7 21/5/7
f 25/11/11 26/14/11 28/13/11 27/12/11
f 29/6/12 30/15/12 25/11/12 27/12/12
f 30/15/4 31/17/4 26/16/4 25/11/4
f 32/18/3 29/6/3 27/12/3 28/19/3
