# Blender 4.5.9 LTS
# www.blender.org
o GEO_Robot_Floor
v 9.585044 -6.832926 0.020237
v 9.585046 6.832859 0.020237
v -9.585129 6.832859 0.020237
v -9.585129 -6.832926 0.020237
v 9.585044 -6.832925 0.000000
v 9.585044 6.832858 0.000000
v -9.585128 6.832858 0.000000
v -9.585128 -6.832925 0.000000
v 9.585045 -0.000034 0.020237
v -9.585129 -0.000034 0.020237
v 9.585044 -0.000034 0.000000
v -9.585128 -0.000034 0.000000
v -0.000042 6.832859 0.020237
v -0.000042 -6.832926 0.020237
v -0.000042 6.832858 0.000000
v -0.000042 -6.832925 0.000000
v -0.000042 -0.000034 0.020237
vn -0.0000 -0.0000 1.0000
vn 1.0000 -0.0000 -0.0001
vn 1.0000 -0.0000 -0.0000
vn -0.0000 1.0000 -0.0000
vn -1.0000 -0.0000 -0.0000
vn -0.0000 -1.0000 -0.0000
vt 0.995600 0.996400
vt 0.499650 0.996400
vt 0.499650 0.659400
vt 0.995600 0.659400
vt 0.003700 0.996400
vt 0.003700 0.322400
vt 0.003700 0.659400
vt 0.995600 0.322400
vt 0.499650 0.322400
s 1
f 2/1/1 13/2/1 17/3/1 9/4/1
f 2/1/2 9/4/3 11/4/3 6/1/2
f 3/5/4 13/2/4 15/2/4 7/5/4
f 4/6/5 10/7/5 12/7/5 8/6/5
f 1/8/6 14/9/6 16/9/6 5/8/6
f 10/7/1 4/6/1 14/9/1 17/3/1
f 9/4/3 1/8/3 5/8/3 11/4/3
f 10/7/5 3/5/5 7/5/5 12/7/5
f 13/2/1 3/5/1 10/7/1 17/3/1
f 13/2/4 2/1/4 6/1/4 15/2/4
f 14/9/6 4/6/6 8/6/6 16/9/6
f 14/9/1 1/8/1 9/4/1 17/3/1
