# Blender 4.5.9 LTS
# www.blender.org
o GEO_Robot_Footballstadium
v 4.840923 -3.484473 0.024370
v 5.591406 -3.993230 0.024370
v 4.840924 3.418742 0.024370
v 5.591406 3.927498 0.024370
v -4.842812 3.418742 0.024370
v -4.842812 -3.484473 0.024370
v -5.585009 3.927498 0.024370
v -5.585009 -3.993230 0.024370
v 5.591406 -3.993230 0.019847
v 5.591406 3.927498 0.019847
v -5.585009 -3.993230 0.019847
v -5.585009 3.927498 0.019847
vn -0.0000 -0.0000 1.0000
vn 1.0000 -0.0000 -0.0000
vn -0.0000 -1.0000 -0.0000
vn -0.0000 1.0000 -0.0000
vn -1.0000 -0.0000 -0.0000
vt 0.734300 0.256000
vt 0.784700 0.300000
vt 0.000200 0.300000
vt 0.050600 0.256000
vt 0.995600 0.996400
vt 0.003700 0.996400
vt 0.003700 0.322400
vt 0.995600 0.322400
vt 0.955800 0.249600
vt 0.999900 0.300000
vt 0.044300 0.249600
vt 0.000200 0.244200
vt 0.000200 0.243800
vt 0.784700 0.244200
vt 0.784700 0.243800
vt 0.000200 0.245700
vt 0.000200 0.245400
vt 0.999900 0.245700
vt 0.999900 0.245400
vt 0.000200 0.245000
vt 0.000200 0.244500
vt 0.999900 0.245000
vt 0.999900 0.244500
vt 0.000200 0.243300
vt 0.000200 0.243000
vt 0.784700 0.243300
vt 0.784700 0.243000
s 1
f 1/1/1 2/2/1 4/3/1 3/4/1
f 3/5/1 5/6/1 6/7/1 1/8/1
f 3/9/1 4/10/1 7/3/1 5/11/1
f 6/9/1 8/10/1 2/3/1 1/11/1
f 5/1/1 7/2/1 8/3/1 6/4/1
f 2/12/2 9/13/2 4/14/2
f 9/13/2 10/15/2 4/14/2
f 8/16/3 11/17/3 2/18/3
f 11/17/3 9/19/3 2/18/3
f 4/20/4 10/21/4 7/22/4
f 10/21/4 12/23/4 7/22/4
f 7/24/5 12/25/5 8/26/5
f 12/25/5 11/27/5 8/26/5
