# Blender 4.5.9 LTS
# www.blender.org
o GEO_Robot_AD
v 0.021209 -3.919145 -0.002309
v 0.021252 -3.919144 0.602084
v 5.524559 -2.321321 0.599142
v 4.362013 -3.918697 -0.003563
v -4.372254 -3.918640 0.600261
v -5.534740 -2.321251 -0.003534
v -5.534599 2.223846 0.599721
v -4.372016 3.821147 -0.003297
v 0.020723 3.821316 -0.002318
v 0.020707 3.821317 0.602066
v 5.524585 2.223853 -0.003888
v 4.362061 3.821152 0.599792
v 4.362013 -3.918697 0.599764
v 5.524558 -2.321321 -0.003900
v -5.534739 -2.321251 0.599758
v -4.372255 -3.918640 -0.003269
v -4.372016 3.821147 0.600207
v -5.534600 2.223846 -0.003553
v 4.362060 3.821152 -0.003549
v 5.524585 2.223853 0.599165
v 5.506300 -2.698569 0.599150
v 5.451747 -3.023563 0.599178
v 5.361217 -3.297326 0.599226
v 5.234859 -3.520583 0.599293
v 5.072373 -3.694207 0.599381
v 4.873125 -3.818609 0.599489
v 4.636587 -3.893586 0.599617
v 4.636586 -3.893586 -0.003643
v 4.873124 -3.818610 -0.003712
v 5.072372 -3.694208 -0.003771
v 5.234858 -3.520585 -0.003818
v 5.361217 -3.297327 -0.003855
v 5.451747 -3.023564 -0.003881
v 5.506300 -2.698570 -0.003896
v -4.646826 -3.893526 0.600146
v -4.883361 -3.818547 0.600046
v -5.082604 -3.694142 0.599961
v -5.245083 -3.520517 0.599890
v -5.371432 -3.297258 0.599835
v -5.461953 -3.023494 0.599794
v -5.516495 -2.698500 0.599769
v -5.516497 -2.698500 -0.003528
v -5.461955 -3.023495 -0.003514
v -5.371435 -3.297259 -0.003493
v -5.245085 -3.520518 -0.003464
v -5.082606 -3.694143 -0.003427
v -4.883363 -3.818547 -0.003382
v -4.646827 -3.893526 -0.003329
v -5.516332 2.601093 0.599726
v -5.461771 2.926084 0.599746
v -5.371233 3.199841 0.599783
v -5.244871 3.423090 0.599836
v -5.082381 3.596703 0.599905
v -4.883130 3.721092 0.599990
v -4.646590 3.796054 0.600090
v -4.646590 3.796053 -0.003358
v -4.883129 3.721092 -0.003411
v -5.082380 3.596703 -0.003456
v -5.244870 3.423090 -0.003492
v -5.371234 3.199841 -0.003520
v -5.461771 2.926083 -0.003540
v -5.516333 2.601093 -0.003550
v 5.506331 2.601100 -0.003882
v 5.451782 2.926091 -0.003865
v 5.361255 3.199848 -0.003838
v 5.234900 3.423096 -0.003801
v 5.072416 3.596709 -0.003753
v 4.873170 3.721098 -0.003696
v 4.636633 3.796058 -0.003627
v 4.636634 3.796059 0.599647
v 4.873171 3.721098 0.599521
v 5.072417 3.596709 0.599414
v 5.234900 3.423096 0.599326
v 5.361255 3.199847 0.599257
v 5.451782 2.926091 0.599207
v 5.506331 2.601100 0.599177
v 0.021209 -3.970454 -0.002309
v 0.021252 -3.970453 0.602084
v 5.561882 -2.323029 0.599142
v 4.363258 -3.969978 -0.003563
v -4.373500 -3.969920 0.600261
v -5.572064 -2.322957 -0.003533
v -5.571922 2.225555 0.599721
v -4.373260 3.872427 -0.003297
v 0.020723 3.872625 -0.002318
v 0.020707 3.872625 0.602066
v 5.561908 2.225560 -0.003888
v 4.363304 3.872432 0.599792
v 4.363259 -3.969977 0.599764
v 5.561882 -2.323029 -0.003900
v -5.572062 -2.322957 0.599758
v -4.373501 -3.969920 -0.003269
v -4.373259 3.872427 0.600207
v -5.571924 2.225555 -0.003553
v 4.363304 3.872432 -0.003549
v 5.561908 2.225560 0.599165
v 5.543243 -2.706069 0.599150
v 5.487116 -3.040030 0.599178
v 5.393173 -3.323875 0.599226
v 5.261266 -3.556864 0.599293
v 5.091696 -3.738113 0.599381
v 4.885112 -3.867203 0.599489
v 4.642046 -3.944343 0.599617
v 4.642047 -3.944344 -0.003643
v 4.885112 -3.867203 -0.003712
v 5.091697 -3.738112 -0.003771
v 5.261266 -3.556863 -0.003818
v 5.393173 -3.323874 -0.003855
v 5.487115 -3.040030 -0.003881
v 5.543243 -2.706069 -0.003896
v -4.652287 -3.944283 0.600146
v -4.895349 -3.867141 0.600046
v -5.101929 -3.738047 0.599961
v -5.271491 -3.556796 0.599890
v -5.403390 -3.323805 0.599835
v -5.497322 -3.039959 0.599794
v -5.553438 -2.705997 0.599769
v -5.553440 -2.705997 -0.003528
v -5.497324 -3.039959 -0.003514
v -5.403392 -3.323804 -0.003493
v -5.271493 -3.556796 -0.003464
v -5.101931 -3.738047 -0.003427
v -4.895351 -3.867141 -0.003382
v -4.652289 -3.944283 -0.003329
v -5.553275 2.608594 0.599726
v -5.497139 2.942552 0.599746
v -5.403190 3.226391 0.599783
v -5.271276 3.459372 0.599836
v -5.101703 3.640610 0.599905
v -4.895115 3.769687 0.599990
v -4.652048 3.846811 0.600090
v -4.652049 3.846811 -0.003358
v -4.895116 3.769686 -0.003411
v -5.101703 3.640609 -0.003456
v -5.271277 3.459371 -0.003492
v -5.403190 3.226390 -0.003520
v -5.497139 2.942552 -0.003540
v -5.553276 2.608594 -0.003550
v 5.543275 2.608598 -0.003882
v 5.487151 2.942556 -0.003865
v 5.393211 3.226395 -0.003838
v 5.261307 3.459376 -0.003801
v 5.091740 3.640615 -0.003753
v 4.885156 3.769692 -0.003696
v 4.642093 3.846815 -0.003627
v 4.642092 3.846816 0.599647
v 4.885156 3.769692 0.599521
v 5.091739 3.640615 0.599414
v 5.261306 3.459377 0.599326
v 5.393211 3.226396 0.599257
v 5.487151 2.942557 0.599207
v 5.543275 2.608599 0.599177
vn 0.0457 0.9990 -0.0000
vn 0.0456 0.9990 -0.0000
vn -0.0000 1.0000 -0.0000
vn -0.0456 0.9990 -0.0000
vn 0.9997 0.0241 -0.0000
vn 0.9997 -0.0242 -0.0000
vn -0.0456 -0.9990 -0.0000
vn -0.0000 -1.0000 -0.0000
vn 0.0456 -0.9990 -0.0000
vn -0.9997 -0.0242 -0.0000
vn -0.9997 0.0242 -0.0000
vn -0.1978 0.9802 -0.0000
vn -0.1977 0.9803 -0.0000
vn 0.9942 0.1071 -0.0000
vn 0.9942 -0.1072 -0.0000
vn -0.1977 -0.9803 -0.0000
vn -0.4192 0.9079 -0.0000
vn -0.4191 0.9079 -0.0000
vn -0.6353 0.7723 -0.0000
vn -0.6352 0.7723 -0.0000
vn -0.8059 0.5921 -0.0000
vn -0.9142 0.4052 -0.0000
vn -0.9707 0.2405 -0.0000
vn -0.9942 0.1071 -0.0000
vn 0.9707 0.2404 -0.0000
vn 0.9142 0.4052 -0.0000
vn 0.8059 0.5921 -0.0000
vn 0.6353 0.7723 -0.0000
vn 0.6352 0.7723 -0.0000
vn 0.4192 0.9079 -0.0000
vn 0.1978 0.9802 -0.0000
vn 0.1978 0.9803 -0.0000
vn 0.9707 -0.2405 -0.0000
vn 0.9142 -0.4052 -0.0000
vn 0.8058 -0.5921 -0.0000
vn 0.8059 -0.5921 -0.0000
vn 0.6352 -0.7724 -0.0000
vn 0.6352 -0.7723 -0.0000
vn 0.4191 -0.9079 -0.0000
vn 0.1977 -0.9803 -0.0000
vn -0.4191 -0.9079 -0.0000
vn -0.4192 -0.9079 -0.0000
vn -0.6352 -0.7724 -0.0000
vn -0.6352 -0.7723 -0.0000
vn -0.8058 -0.5921 -0.0000
vn -0.8059 -0.5921 -0.0000
vn -0.9142 -0.4052 -0.0000
vn -0.9707 -0.2405 -0.0000
vn -0.9707 -0.2404 -0.0000
vn -0.9942 -0.1071 -0.0000
vn -0.0459 -0.9989 -0.0000
vn 0.0459 -0.9989 -0.0000
vn -0.9997 0.0243 -0.0000
vn -0.9997 -0.0243 -0.0000
vn 0.0458 0.9990 -0.0000
vn 0.0458 0.9989 -0.0000
vn -0.0458 0.9990 -0.0000
vn -0.0458 0.9989 -0.0000
vn 0.9997 -0.0243 -0.0000
vn 0.9997 0.0243 -0.0000
vn 0.1982 -0.9802 -0.0000
vn 0.1981 -0.9802 -0.0000
vn -0.9942 -0.1073 -0.0000
vn -0.9942 0.1074 -0.0000
vn 0.1981 0.9802 -0.0000
vn 0.4195 -0.9077 -0.0000
vn 0.4195 -0.9078 -0.0000
vn 0.6355 -0.7721 -0.0000
vn 0.6354 -0.7722 -0.0000
vn 0.9142 -0.4054 -0.0000
vn 0.9141 -0.4054 -0.0000
vn 0.9706 -0.2407 -0.0000
vn 0.9942 -0.1074 -0.0000
vn -0.9706 -0.2406 -0.0000
vn -0.9142 -0.4053 -0.0000
vn -0.9142 -0.4054 -0.0000
vn -0.8059 -0.5920 -0.0000
vn -0.6355 -0.7721 -0.0000
vn -0.4195 -0.9077 -0.0000
vn -0.4195 -0.9078 -0.0000
vn -0.1982 -0.9802 -0.0000
vn -0.9706 0.2407 -0.0000
vn -0.9141 0.4054 -0.0000
vn -0.8058 0.5921 -0.0000
vn -0.6354 0.7722 -0.0000
vn -0.4194 0.9078 -0.0000
vn -0.4195 0.9078 -0.0000
vn -0.1981 0.9802 -0.0000
vn 0.4194 0.9078 -0.0000
vn 0.4195 0.9078 -0.0000
vn 0.6354 0.7722 -0.0000
vn 0.6354 0.7721 -0.0000
vn 0.9141 0.4054 -0.0000
vn 0.9142 0.4054 -0.0000
vn 0.9706 0.2407 -0.0000
vn 0.9942 0.1074 -0.0000
vn 0.9942 0.1073 -0.0000
vn 0.0001 -0.0000 1.0000
vn -0.0004 -0.0000 1.0000
vn 0.0005 -0.0000 1.0000
vn -0.0000 -0.0000 1.0000
vn 0.0005 0.0001 1.0000
vn -0.0000 0.0001 1.0000
vn 0.0005 -0.0001 1.0000
vn 0.0004 0.0002 1.0000
vn 0.0003 0.0002 1.0000
vn 0.0001 0.0002 1.0000
vn 0.0002 0.0002 1.0000
vn 0.0001 0.0001 1.0000
vn -0.0001 0.0001 1.0000
vn -0.0002 0.0002 1.0000
vn -0.0003 0.0001 1.0000
vn -0.0004 0.0001 1.0000
vn -0.0000 -0.0001 1.0000
vn -0.0001 -0.0001 1.0000
vn -0.0002 -0.0001 1.0000
vn -0.0003 -0.0001 1.0000
vn -0.0004 -0.0001 1.0000
vn 0.0004 -0.0002 1.0000
vn 0.0003 -0.0002 1.0000
vn 0.0001 -0.0002 1.0000
vn 0.0002 -0.0002 1.0000
vn 0.0001 -0.0001 1.0000
vt 0.844909 0.867613
vt 0.844876 0.981973
vt 0.011196 0.981973
vt 0.011196 0.867613
vt 0.981599 0.023765
vt 0.981599 0.131955
vt 0.138584 0.132436
vt 0.138584 0.023765
vt 0.193071 0.642900
vt 0.193070 0.536085
vt 0.776146 0.541312
vt 0.776147 0.642247
vt 0.851351 0.360768
vt 0.851352 0.480291
vt 0.023182 0.480291
vt 0.023182 0.360768
vt 0.981599 0.689727
vt 0.981599 0.798522
vt 0.124634 0.798522
vt 0.124633 0.689727
vt 0.220501 0.300339
vt 0.220501 0.185338
vt 0.804715 0.185335
vt 0.804715 0.300334
vt 0.100879 0.023765
vt 0.100879 0.132902
vt 0.156439 0.536085
vt 0.156440 0.642900
vt 0.819958 0.642247
vt 0.819957 0.541312
vt 0.891384 0.480291
vt 0.891384 0.360768
vt 0.065265 0.023765
vt 0.065265 0.132890
vt 0.023182 0.023765
vt 0.023182 0.132877
vt 0.955716 0.185364
vt 0.981599 0.185371
vt 0.981599 0.300401
vt 0.955716 0.300388
vt 0.917966 0.185357
vt 0.917966 0.300374
vt 0.880216 0.185349
vt 0.880215 0.300361
vt 0.842465 0.185342
vt 0.842465 0.300347
vt 0.119710 0.536085
vt 0.119712 0.642900
vt 0.082982 0.536085
vt 0.082983 0.642900
vt 0.046253 0.536085
vt 0.046255 0.642900
vt 0.010448 0.536085
vt 0.010448 0.642900
vt 0.944262 0.867613
vt 0.988876 0.867613
vt 0.988876 0.981973
vt 0.944238 0.981973
vt 0.897201 0.867613
vt 0.897174 0.981973
vt 0.862954 0.642247
vt 0.862953 0.541312
vt 0.905950 0.642247
vt 0.905950 0.541312
vt 0.948946 0.642247
vt 0.948946 0.541312
vt 0.991385 0.642247
vt 0.991385 0.541312
vt 0.052715 0.798504
vt 0.023182 0.798495
vt 0.023182 0.689713
vt 0.052715 0.689718
vt 0.088674 0.798513
vt 0.088674 0.689722
vt 0.930558 0.480291
vt 0.930558 0.360768
vt 0.981599 0.480291
vt 0.981599 0.360768
vt 0.058809 0.300393
vt 0.023182 0.300407
vt 0.023182 0.185374
vt 0.058810 0.185367
vt 0.096559 0.300380
vt 0.096559 0.185360
vt 0.134309 0.300366
vt 0.134309 0.185352
vt 0.172058 0.300353
vt 0.172058 0.185345
vt 0.158031 0.981973
vt 0.157998 0.867613
vt 0.866917 0.132436
vt 0.023902 0.131955
vt 0.023902 0.023765
vt 0.866917 0.023765
vt 0.194322 0.536085
vt 0.777611 0.541312
vt 0.777610 0.642247
vt 0.194321 0.642900
vt 0.153429 0.480291
vt 0.153430 0.360768
vt 0.880147 0.798522
vt 0.023182 0.798522
vt 0.023182 0.689727
vt 0.880148 0.689727
vt 0.215126 0.185335
vt 0.794973 0.185338
vt 0.794973 0.300339
vt 0.215126 0.300334
vt 0.904622 0.023765
vt 0.904622 0.132902
vt 0.820491 0.541312
vt 0.820490 0.642247
vt 0.156894 0.642900
vt 0.156895 0.536085
vt 0.113397 0.480291
vt 0.113397 0.360768
vt 0.940236 0.023765
vt 0.940236 0.132890
vt 0.982319 0.023765
vt 0.982319 0.132877
vt 0.023182 0.300401
vt 0.023182 0.185371
vt 0.049065 0.185364
vt 0.049065 0.300388
vt 0.086815 0.185357
vt 0.086815 0.300374
vt 0.124565 0.185349
vt 0.124566 0.300361
vt 0.162316 0.185342
vt 0.162316 0.300347
vt 0.863485 0.541312
vt 0.863483 0.642247
vt 0.906478 0.541312
vt 0.906477 0.642247
vt 0.949472 0.541312
vt 0.949471 0.642247
vt 0.056853 0.867613
vt 0.056878 0.981973
vt 0.105067 0.867613
vt 0.105095 0.981973
vt 0.120164 0.642900
vt 0.120164 0.536085
vt 0.083433 0.642900
vt 0.083434 0.536085
vt 0.046703 0.642900
vt 0.046703 0.536085
vt 0.010448 0.642900
vt 0.010448 0.536085
vt 0.981599 0.689713
vt 0.981599 0.798495
vt 0.952066 0.798504
vt 0.952066 0.689718
vt 0.916107 0.798513
vt 0.916107 0.689722
vt 0.074223 0.480291
vt 0.074223 0.360768
vt 0.023182 0.480291
vt 0.023182 0.360768
vt 0.981599 0.185374
vt 0.981599 0.300407
vt 0.945972 0.300393
vt 0.945971 0.185367
vt 0.908222 0.300380
vt 0.908222 0.185360
vt 0.870472 0.300366
vt 0.870472 0.185352
vt 0.832723 0.300353
vt 0.832723 0.185345
vt 0.967496 0.849085
vt 0.728956 0.849085
vt 0.728956 0.820895
vt 0.967496 0.820895
vt 0.816425 0.849085
vt 0.013768 0.849085
vt 0.013768 0.820895
vt 0.816425 0.820895
vt 0.401860 0.849085
vt 0.161759 0.849085
vt 0.161759 0.820895
vt 0.401860 0.820895
vt 0.718890 0.820895
vt 0.718890 0.849085
vt 0.519709 0.820895
vt 0.519709 0.849085
vt 0.149717 0.820895
vt 0.604717 0.820895
vt 0.604717 0.849085
vt 0.149717 0.849085
vt 0.866405 0.849085
vt 0.866405 0.820895
vt 0.844829 0.849085
vt 0.844829 0.820895
vt 0.126647 0.849085
vt 0.126647 0.820895
vt 0.801238 0.820895
vt 0.801238 0.849085
vt 0.915675 0.849085
vt 0.915675 0.820895
vt 0.944592 0.820895
vt 0.944592 0.849085
vt 0.917977 0.820895
vt 0.917977 0.849085
vt 0.887020 0.820895
vt 0.887020 0.849085
vt 0.851307 0.820895
vt 0.851307 0.849085
vt 0.879777 0.849085
vt 0.879777 0.820895
vt 0.911120 0.849085
vt 0.911120 0.820895
vt 0.940085 0.849085
vt 0.940085 0.820895
vt 0.081024 0.849085
vt 0.081024 0.820895
vt 0.148219 0.849085
vt 0.148219 0.820895
vt 0.095214 0.849085
vt 0.095214 0.820895
vt 0.066191 0.849085
vt 0.066191 0.820895
vt 0.038038 0.849085
vt 0.038038 0.820895
vt 0.044526 0.820895
vt 0.044526 0.849085
vt 0.072063 0.820895
vt 0.072063 0.849085
vt 0.882412 0.820895
vt 0.882412 0.849085
vt 0.033714 0.820895
vt 0.033714 0.849085
vt 0.056669 0.820895
vt 0.056669 0.849085
vt 0.083276 0.820895
vt 0.083276 0.849085
vt 0.114166 0.820895
vt 0.114166 0.849085
s 1
f 16/1/1 5/2/2 2/3/3 1/4/3
f 1/5/3 2/6/3 13/7/4 4/8/4
f 15/9/5 6/10/5 18/11/6 7/12/6
f 19/13/7 12/14/7 10/15/8 9/16/8
f 9/17/8 10/18/8 17/19/9 8/20/9
f 20/21/10 11/22/10 14/23/11 3/24/11
f 28/25/12 4/8/4 13/7/4 27/26/13
f 42/27/14 6/10/5 15/9/5 41/28/14
f 49/29/15 7/12/6 18/11/6 62/30/15
f 70/31/16 12/14/7 19/13/7 69/32/16
f 29/33/17 28/25/12 27/26/13 26/34/18
f 30/35/19 29/33/17 26/34/18 25/36/20
f 31/37/21 30/38/19 25/39/20 24/40/21
f 32/41/22 31/37/21 24/40/21 23/42/22
f 33/43/23 32/41/22 23/42/22 22/44/23
f 34/45/24 33/43/23 22/44/23 21/46/24
f 14/23/11 34/45/24 21/46/24 3/24/11
f 43/47/25 42/27/14 41/28/14 40/48/25
f 44/49/26 43/47/25 40/48/25 39/50/26
f 45/51/27 44/49/26 39/50/26 38/52/27
f 46/53/28 45/51/27 38/52/27 37/54/29
f 47/55/30 46/56/28 37/57/29 36/58/30
f 48/59/31 47/55/30 36/58/30 35/60/32
f 16/1/1 48/59/31 35/60/32 5/2/2
f 50/61/33 49/29/15 62/30/15 61/62/33
f 51/63/34 50/61/33 61/62/33 60/64/34
f 52/65/35 51/63/34 60/64/34 59/66/36
f 53/67/37 52/65/35 59/66/36 58/68/38
f 54/69/39 53/70/37 58/71/38 57/72/39
f 55/73/40 54/69/39 57/72/39 56/74/40
f 17/19/9 55/73/40 56/74/40 8/20/9
f 71/75/41 70/31/16 69/32/16 68/76/42
f 72/77/43 71/75/41 68/76/42 67/78/44
f 73/79/45 72/80/43 67/81/44 66/82/46
f 74/83/47 73/79/45 66/82/46 65/84/47
f 75/85/48 74/83/47 65/84/47 64/86/49
f 76/87/50 75/85/48 64/86/49 63/88/50
f 20/21/10 76/87/50 63/88/50 11/22/10
f 78/57/8 81/89/51 92/90/51 77/56/8
f 89/91/52 78/92/8 77/93/8 80/94/52
f 94/95/53 82/96/54 91/97/54 83/98/53
f 86/77/3 88/99/55 95/100/56 85/78/3
f 93/101/57 86/102/3 85/103/3 84/104/58
f 90/105/59 87/106/60 96/107/60 79/108/59
f 89/91/52 80/94/52 104/109/61 103/110/62
f 91/97/54 82/96/54 118/111/63 117/112/63
f 94/95/53 83/98/53 125/113/64 138/114/64
f 95/100/56 88/99/55 146/115/65 145/116/65
f 103/110/62 104/109/61 105/117/66 102/118/67
f 102/118/67 105/117/66 106/119/68 101/120/69
f 101/121/69 106/122/68 107/123/36 100/124/36
f 100/124/36 107/123/36 108/125/70 99/126/71
f 99/126/71 108/125/70 109/127/72 98/128/72
f 98/128/72 109/127/72 110/129/73 97/130/73
f 97/130/73 110/129/73 90/105/59 79/108/59
f 117/112/63 118/111/63 119/131/74 116/132/74
f 116/132/74 119/131/74 120/133/75 115/134/76
f 115/134/76 120/133/75 121/135/77 114/136/46
f 114/136/46 121/135/77 122/68/78 113/67/78
f 113/3/78 122/4/78 123/137/79 112/138/80
f 112/138/80 123/137/79 124/139/81 111/140/81
f 111/140/81 124/139/81 92/90/51 81/89/51
f 138/114/64 125/113/64 126/141/82 137/142/82
f 137/142/82 126/141/82 127/143/83 136/144/83
f 136/144/83 127/143/83 128/145/84 135/146/21
f 135/146/21 128/145/84 129/147/85 134/148/85
f 134/149/85 129/150/85 130/151/86 133/152/87
f 133/152/87 130/151/86 131/153/88 132/154/88
f 132/154/88 131/153/88 93/101/57 84/104/58
f 145/116/65 146/115/65 147/155/89 144/156/90
f 144/156/90 147/155/89 148/157/91 143/158/92
f 143/159/92 148/160/91 149/161/27 142/162/27
f 142/162/27 149/161/27 150/163/93 141/164/94
f 141/164/94 150/163/93 151/165/95 140/166/95
f 140/166/95 151/165/95 152/167/96 139/168/97
f 139/168/97 152/167/96 96/107/60 87/106/60
f 2/169/98 5/170/99 81/171/99 78/172/98
f 13/173/100 2/174/98 78/175/98 89/176/100
f 15/177/101 7/178/101 83/179/101 91/180/101
f 10/175/98 12/181/100 88/182/100 86/174/98
f 17/183/99 10/172/98 86/169/98 93/184/99
f 20/185/101 3/186/101 79/187/101 96/188/101
f 27/189/102 13/173/100 89/176/100 103/190/102
f 41/191/103 15/177/101 91/180/101 117/192/103
f 7/178/101 49/193/101 125/194/101 83/179/101
f 12/181/100 70/195/104 146/196/104 88/182/100
f 26/197/102 27/189/102 103/190/102 102/198/102
f 25/169/105 26/197/102 102/198/102 101/172/105
f 24/199/106 25/172/105 101/169/105 100/200/106
f 23/201/107 24/199/106 100/200/106 99/202/108
f 22/203/109 23/201/107 99/202/108 98/204/109
f 21/205/101 22/203/109 98/204/109 97/206/103
f 3/186/101 21/205/101 97/206/103 79/187/101
f 40/207/103 41/191/103 117/192/103 116/208/103
f 39/209/110 40/207/103 116/208/103 115/210/110
f 38/211/111 39/209/110 115/210/110 114/212/111
f 37/169/112 38/211/111 114/212/111 113/172/112
f 36/213/113 37/174/112 113/175/112 112/214/113
f 35/215/99 36/213/113 112/214/113 111/216/99
f 5/170/99 35/215/99 111/216/99 81/171/99
f 49/193/101 50/217/114 126/218/114 125/194/101
f 50/217/114 51/219/115 127/220/115 126/218/114
f 51/219/115 52/221/116 128/222/116 127/220/115
f 52/221/116 53/174/117 129/175/117 128/222/116
f 53/175/117 54/223/118 130/224/118 129/174/117
f 54/223/118 55/225/99 131/226/99 130/224/118
f 55/225/99 17/183/99 93/184/99 131/226/99
f 70/195/104 71/227/104 147/228/104 146/196/104
f 71/227/104 72/172/119 148/169/119 147/228/104
f 72/175/119 73/229/120 149/230/120 148/174/119
f 73/229/120 74/231/121 150/232/122 149/230/120
f 74/231/121 75/233/123 151/234/123 150/232/122
f 75/233/123 76/235/114 152/236/114 151/234/123
f 76/235/114 20/185/101 96/188/101 152/236/114
